<svg version="1.0" xmlns="http://www.w3.org/2000/svg"
 width="57.000000pt" height="27.000000pt" viewBox="0 0 57.000000 27.000000"
 preserveAspectRatio="xMidYMid meet" id="logo">
<g id="logo" transform="translate(0.000000,27.000000) scale(0.100000,-0.100000)"
fill="#000" stroke="none">
<path d="M456 255 c4 -9 0 -15 -7 -15 -8 0 -30 -23 -50 -50 l-36 -50 -48 51
-48 51 -51 -51 -51 -50 -35 49 c-27 39 -41 50 -62 50 -23 0 -31 -7 -43 -37 -9
-20 -18 -48 -22 -61 -5 -21 -3 -23 23 -20 26 3 34 -4 73 -60 l44 -63 63 62 63
63 59 -64 59 -64 44 67 c47 72 65 82 75 42 3 -14 9 -25 13 -25 7 0 56 109 50
113 -53 38 -110 77 -114 77 -2 0 -2 -7 1 -15z"/>
</g>
</svg>
